<?xml version="1.0" standalone="no"?>
<!DOCTYPE svg PUBLIC "-//W3C//DTD SVG 20010904//EN"
 "http://www.w3.org/TR/2001/REC-SVG-20010904/DTD/svg10.dtd">
<svg version="1.0" xmlns="http://www.w3.org/2000/svg"
 width="1000.000000pt" height="1000.000000pt" viewBox="0 0 1000.000000 1000.000000"
 preserveAspectRatio="xMidYMid meet">
<metadata>
Created by potrace 1.11, written by Peter Selinger 2001-2013
</metadata>
<g transform="translate(0.000000,1000.000000) scale(0.100000,-0.100000)"
fill="#000000" stroke="none">
<path d="M0 5000 l0 -5000 5000 0 5000 0 0 5000 0 5000 -5000 0 -5000 0 0
-5000z m5580 4451 c0 -5 -36 -29 -81 -53 -208 -111 -319 -244 -369 -444 l-21
-81 23 -36 c19 -30 29 -36 59 -37 113 -1 240 49 331 130 52 46 178 217 178
241 0 5 5 9 10 9 7 0 10 -162 10 -466 l0 -465 -72 107 c-39 59 -98 134 -130
166 -88 86 -207 137 -321 138 -40 0 -50 -4 -54 -19 -3 -11 -11 -22 -19 -25
-11 -4 -14 -36 -14 -156 l0 -151 76 -142 c160 -299 278 -443 415 -511 143 -70
291 -69 550 4 l116 32 6 75 c7 98 46 181 117 250 l53 52 -5 118 c-8 179 -51
266 -150 307 -73 31 -180 12 -305 -53 -86 -45 -86 -47 -16 94 81 163 155 235
239 235 76 -1 175 -79 271 -213 l60 -86 17 86 c32 161 154 441 251 572 73 98
102 102 125 13 42 -163 23 -547 -35 -715 -7 -21 -10 -37 -7 -35 4 2 45 23 92
47 117 60 182 81 254 81 144 0 190 -86 184 -340 l-3 -135 -33 51 c-43 67 -140
160 -194 184 -131 59 -257 -16 -352 -211 l-43 -88 23 -68 c36 -103 28 -202
-22 -306 l-18 -38 33 -66 c88 -179 255 -268 454 -243 223 28 455 158 676 378
l124 123 -39 40 c-62 64 -114 84 -214 83 -97 -1 -171 -23 -353 -104 -61 -27
-112 -48 -114 -46 -2 2 247 457 447 816 11 19 13 14 34 -105 50 -270 142 -444
271 -511 l56 -29 19 25 c11 14 35 57 54 95 111 223 86 444 -83 734 -24 40 -40
75 -37 78 5 5 606 -334 606 -342 0 -3 -236 -410 -525 -905 -289 -496 -525
-903 -525 -906 0 -2 9 -4 20 -4 18 0 20 -8 22 -122 l3 -123 131 -3 131 -3 12
55 c48 214 237 366 456 366 402 0 614 -478 344 -774 -71 -78 -159 -129 -261
-150 l-28 -6 0 -175 0 -175 119 0 c129 0 158 -10 205 -73 20 -28 21 -38 21
-426 l0 -398 -29 -37 c-41 -55 -77 -66 -206 -66 l-110 0 0 -195 0 -195 119 0
c129 0 158 -10 205 -73 20 -28 21 -41 24 -410 3 -381 3 -382 -20 -426 -39 -76
-61 -85 -204 -89 l-124 -4 0 -189 0 -189 119 0 c129 0 158 -10 205 -73 20 -28
21 -38 21 -426 l0 -398 -29 -37 c-41 -55 -77 -66 -206 -66 l-110 0 0 -163 0
-164 51 -11 c250 -58 408 -318 344 -565 -61 -235 -289 -388 -519 -349 -189 33
-344 175 -385 353 -58 250 105 510 351 561 l58 12 0 162 0 162 -124 4 c-135 3
-154 10 -200 72 -20 26 -21 42 -24 413 -3 370 -2 387 18 427 33 69 74 86 214
86 l116 0 0 189 0 189 -124 4 c-135 3 -154 10 -200 72 -20 26 -21 41 -24 419
-2 391 -2 392 20 431 37 63 73 76 210 76 l118 0 0 194 0 194 -124 4 c-135 3
-154 10 -200 72 -20 26 -21 42 -24 413 -3 370 -2 387 18 427 33 69 74 86 214
86 l116 0 0 174 0 174 -67 17 c-171 42 -306 181 -344 353 l-12 53 -131 -3
-131 -3 -3 -2833 -2 -2833 -152 3 -152 3 -19 50 c-226 599 -410 1124 -405
1159 4 27 43 46 96 46 l42 0 0 290 0 290 -290 0 -290 0 0 -305 0 -305 66 0
c60 0 66 -2 61 -19 -10 -38 -442 -1151 -447 -1151 -5 0 -436 1108 -447 1147
-5 22 -3 23 61 23 l66 0 0 305 0 305 -290 0 -290 0 0 -305 0 -305 70 0 c39 0
70 -3 70 -7 0 -13 -445 -1153 -450 -1153 -5 0 -450 1140 -450 1153 0 4 32 7
70 7 l70 0 0 305 0 305 -290 0 -290 0 0 -305 0 -305 66 0 c64 0 66 -1 61 -22
-11 -40 -442 -1148 -447 -1148 -5 0 -437 1113 -447 1151 -5 17 1 19 61 19 l66
0 0 305 0 305 -290 0 -290 0 0 -290 0 -290 43 0 c52 0 91 -19 95 -46 5 -34
-183 -572 -405 -1159 l-19 -50 -152 -3 -152 -3 -2 2833 -3 2833 -131 3 -131 3
-16 -67 c-42 -170 -186 -309 -354 -345 l-53 -10 0 -175 0 -174 118 0 c140 0
174 -13 210 -81 l23 -43 -3 -387 c-3 -374 -4 -389 -24 -415 -46 -62 -65 -69
-200 -72 l-124 -4 0 -194 0 -194 118 0 c137 0 173 -13 210 -76 22 -39 22 -40
20 -431 -3 -378 -4 -393 -24 -419 -46 -62 -65 -69 -200 -72 l-124 -4 0 -189 0
-189 118 0 c140 0 174 -13 210 -81 l23 -43 -3 -387 c-3 -374 -4 -389 -24 -415
-46 -62 -65 -69 -200 -72 l-124 -4 0 -162 0 -162 58 -12 c208 -43 362 -236
362 -452 -1 -133 -43 -234 -136 -327 -73 -74 -154 -116 -256 -134 -272 -49
-537 177 -538 456 0 217 151 409 359 457 l51 11 0 164 0 163 -110 0 c-129 0
-165 11 -206 66 l-29 37 0 398 c0 388 1 398 21 426 47 63 76 73 205 73 l119 0
0 189 0 189 -124 4 c-143 4 -165 13 -204 89 -23 44 -23 45 -20 426 3 369 4
382 24 410 47 63 76 73 205 73 l119 0 0 195 0 195 -110 0 c-129 0 -165 11
-206 66 l-29 37 0 398 c0 388 1 398 21 426 47 63 76 73 205 73 l119 0 0 175 0
174 -42 11 c-110 28 -178 69 -251 150 -265 295 -51 770 348 770 219 0 408
-152 456 -366 l12 -55 131 3 131 3 3 123 c2 114 4 122 22 122 11 0 20 2 20 4
0 3 -236 410 -525 906 -289 495 -525 902 -525 904 0 9 601 348 607 343 3 -3
-11 -33 -31 -66 -58 -95 -115 -224 -136 -307 -24 -94 -26 -226 -5 -309 17 -64
72 -183 105 -225 l19 -25 56 29 c130 68 221 240 271 516 10 52 20 98 23 102 3
4 108 -178 234 -404 125 -226 226 -413 224 -414 -2 -2 -53 19 -114 46 -278
124 -412 138 -528 56 -92 -66 -94 -60 47 -199 73 -73 161 -148 216 -186 291
-197 574 -248 752 -136 56 35 127 118 162 189 l32 65 -22 48 c-49 108 -54 221
-13 315 l19 46 -43 89 c-96 197 -222 273 -353 213 -54 -24 -151 -117 -194
-184 l-33 -51 -3 135 c-6 254 40 340 184 340 72 0 137 -21 254 -81 47 -24 88
-45 92 -47 3 -2 0 14 -7 35 -72 210 -78 717 -8 774 65 54 303 -395 354 -668
l11 -62 61 85 c96 135 195 213 271 214 50 0 114 -38 156 -94 33 -43 139 -247
140 -267 0 -4 -33 11 -73 32 -125 65 -232 84 -305 53 -99 -41 -142 -128 -150
-307 l-5 -118 52 -51 c78 -76 121 -175 121 -279 l0 -46 118 -33 c486 -137 673
-39 966 507 l76 142 0 150 c0 114 -3 152 -13 158 -8 4 -16 16 -20 26 -5 13
-18 17 -54 17 -174 -1 -315 -96 -453 -306 l-70 -106 0 466 c0 304 3 466 10
466 6 0 10 -4 10 -9 0 -23 125 -194 175 -240 89 -80 220 -132 334 -131 30 1
40 7 59 37 l23 36 -20 80 c-52 204 -159 331 -373 447 -43 23 -78 46 -78 51 0
5 237 9 580 9 351 0 580 -4 580 -9z m-1344 -1427 c96 -46 111 -180 29 -252
-113 -100 -293 18 -246 161 13 38 54 84 86 98 33 13 95 10 131 -7z m1687 -10
c15 -10 36 -38 48 -62 72 -146 -113 -288 -236 -180 -82 71 -66 211 29 254 42
19 125 13 159 -12z m-3004 -279 c115 -59 115 -215 1 -273 -171 -88 -312 168
-148 268 39 24 107 26 147 5z m4309 -5 c122 -75 79 -269 -64 -286 -93 -12
-185 84 -169 175 18 106 143 166 233 111z"/>
<path d="M4540 7209 c-620 -53 -1167 -200 -1670 -448 l-155 -76 1142 -3 c629
-1 1657 -1 2285 0 l1143 3 -155 76 c-455 224 -935 363 -1486 430 -151 18 -242
22 -589 24 -225 2 -457 -1 -515 -6z"/>
<path d="M2505 6469 c-45 -40 -62 -95 -46 -148 36 -122 198 -141 260 -31 37
66 23 131 -39 184 -26 21 -42 26 -85 26 -46 0 -59 -5 -90 -31z"/>
<path d="M3713 6480 c-88 -53 -83 -198 9 -246 95 -49 211 19 211 125 0 81 -61
141 -143 141 -27 0 -58 -8 -77 -20z"/>
<path d="M4926 6481 c-43 -28 -66 -70 -66 -120 0 -83 58 -141 140 -141 82 0
140 58 140 141 0 79 -60 139 -140 139 -27 0 -56 -8 -74 -19z"/>
<path d="M6133 6480 c-63 -38 -84 -127 -47 -191 73 -125 264 -75 264 69 0 85
-56 142 -140 142 -27 0 -58 -8 -77 -20z"/>
<path d="M7320 6474 c-62 -53 -76 -118 -39 -184 62 -110 224 -91 260 31 16 53
-1 108 -46 148 -31 26 -44 31 -90 31 -43 0 -59 -5 -85 -26z"/>
<path d="M2892 5778 l3 -263 288 -3 287 -2 0 265 0 265 -290 0 -290 0 2 -262z"/>
<path d="M4110 5775 l0 -265 288 2 287 3 3 263 2 262 -290 0 -290 0 0 -265z"/>
<path d="M5312 5778 l3 -263 288 -3 287 -2 0 265 0 265 -290 0 -290 0 2 -262z"/>
<path d="M6530 5775 l0 -265 288 2 287 3 3 263 2 262 -290 0 -290 0 0 -265z"/>
<path d="M2531 5342 c-53 -26 -76 -65 -76 -125 0 -63 27 -106 81 -132 74 -35
172 7 195 84 38 126 -85 232 -200 173z"/>
<path d="M3724 5341 c-58 -36 -76 -69 -72 -134 5 -66 37 -108 95 -128 73 -24
163 26 183 100 32 120 -102 225 -206 162z"/>
<path d="M4932 5340 c-98 -60 -94 -200 8 -253 90 -46 200 24 200 128 0 75 -67
145 -140 145 -19 0 -50 -9 -68 -20z"/>
<path d="M6155 5351 c-34 -14 -74 -62 -85 -100 -34 -127 122 -230 224 -150 37
29 56 71 56 123 0 93 -107 162 -195 127z"/>
<path d="M7329 5337 c-125 -83 -60 -279 88 -264 144 15 181 204 52 269 -47 25
-99 23 -140 -5z"/>
<path d="M2892 4618 l3 -263 288 -3 287 -2 0 265 0 265 -290 0 -290 0 2 -262z"/>
<path d="M4110 4615 l0 -265 288 2 287 3 3 263 2 262 -290 0 -290 0 0 -265z"/>
<path d="M5312 4618 l3 -263 288 -3 287 -2 0 265 0 265 -290 0 -290 0 2 -262z"/>
<path d="M6530 4615 l0 -265 288 2 287 3 3 263 2 262 -290 0 -290 0 0 -265z"/>
<path d="M2523 4161 c-100 -63 -93 -200 14 -252 70 -34 153 -5 186 64 31 64
18 125 -37 176 -36 34 -118 40 -163 12z"/>
<path d="M3716 4161 c-62 -41 -85 -125 -51 -191 33 -64 130 -95 192 -62 94 51
100 197 10 252 -42 26 -113 26 -151 1z"/>
<path d="M4945 4171 c-76 -34 -109 -143 -63 -211 15 -22 41 -42 71 -54 47 -20
47 -20 94 0 68 28 96 73 91 142 -4 45 -10 59 -40 89 -30 29 -45 36 -85 39 -26
2 -57 0 -68 -5z"/>
<path d="M6133 4160 c-120 -73 -66 -264 75 -264 144 0 197 185 76 265 -38 25
-109 25 -151 -1z"/>
<path d="M7332 4160 c-117 -72 -83 -240 55 -266 49 -9 114 26 142 77 70 124
-75 263 -197 189z"/>
<path d="M2892 3433 l3 -288 288 -3 287 -2 0 290 0 290 -290 0 -290 0 2 -287z"/>
<path d="M4110 3430 l0 -290 290 0 290 0 0 290 0 290 -290 0 -290 0 0 -290z"/>
<path d="M5310 3430 l0 -290 290 0 290 0 0 290 0 290 -290 0 -290 0 0 -290z"/>
<path d="M6530 3430 l0 -290 288 2 287 3 3 288 2 287 -290 0 -290 0 0 -290z"/>
<path d="M2531 2952 c-53 -26 -76 -65 -76 -125 0 -63 27 -106 81 -132 74 -35
172 7 195 84 38 127 -84 233 -200 173z"/>
<path d="M3719 2949 c-47 -28 -69 -66 -69 -122 0 -54 31 -105 80 -130 89 -46
203 25 203 126 0 114 -116 182 -214 126z"/>
<path d="M4932 2950 c-98 -60 -94 -200 8 -253 90 -46 200 24 200 128 0 75 -67
145 -140 145 -19 0 -50 -9 -68 -20z"/>
<path d="M6143 2954 c-70 -35 -100 -143 -57 -201 69 -92 181 -94 241 -4 28 41
31 110 6 151 -36 61 -125 86 -190 54z"/>
<path d="M7333 2950 c-120 -73 -80 -253 60 -267 117 -11 199 131 130 226 -43
58 -131 77 -190 41z"/>
</g>
</svg>
